<?xml version="1.0" encoding="UTF-8" standalone="no"?>
<svg
   xmlns:dc="http://purl.org/dc/elements/1.1/"
   xmlns:cc="http://creativecommons.org/ns#"
   xmlns:rdf="http://www.w3.org/1999/02/22-rdf-syntax-ns#"
   xmlns:svg="http://www.w3.org/2000/svg"
   xmlns="http://www.w3.org/2000/svg"
   viewBox="0 0 290.66666 214.66667"
   height="214.66667"
   width="290.66666"
   xml:space="preserve"
   id="svg2"
   version="1.1"><metadata
     id="metadata8"><rdf:RDF><cc:Work
         rdf:about=""><dc:format>image/svg+xml</dc:format><dc:type
           rdf:resource="http://purl.org/dc/dcmitype/StillImage" /></cc:Work></rdf:RDF></metadata><defs
     id="defs6" /><g
     transform="matrix(1.3333333,0,0,-1.3333333,0,214.66667)"
     id="g10"><g
       transform="scale(0.1)"
       id="g12"><path
         id="path14"
         style="fill:#0d3b74;fill-opacity:1;fill-rule:evenodd;stroke:none"
         d="M 1018.35,1238.72 973.492,1107.5 H 841.727 c 36.91,71.2 99.988,114.93 176.623,131.22 z m 25.23,0.03 230.87,0.77 c 64.99,-27.22 56.91,-94.28 45.28,-127.05 l -0.39,-0.34 -190.25,-0.44 -137.375,-397.831 c -71.32,20.707 -99.004,84.817 -84.106,136.797 z m 90.44,-193.25 h 128.77 c 21.03,-2.97 23.25,-17.55 23.03,-27.41 l -30.62,-82.34 c -5.36,-9.785 -18.92,-22.879 -37.95,-25.07 h -133.02 z m -76.42,-207.406 165.26,1.144 C 1155.12,735.402 1047.83,711.781 1014.14,712.465 l 43.46,125.629" /><path
         id="path16"
         style="fill:#0d3b74;fill-opacity:1;fill-rule:nonzero;stroke:none"
         d="m 559.789,447.645 v 0 c -2.84,-25.668 -12.84,-46.082 -30.109,-61.188 -17.266,-15.102 -39.227,-22.629 -65.93,-22.629 -31.187,0 -55.98,10.41 -74.332,31.289 -18.402,20.879 -27.578,49.129 -27.578,84.75 0,36.285 9.176,65.102 27.578,86.395 18.352,21.34 43.145,32.011 74.332,32.011 26.395,0 48.199,-7.113 65.52,-21.339 17.32,-14.227 27.476,-33.512 30.519,-57.84 v 0 h -46.394 v 0 c -1.497,11.961 -6.653,21.394 -15.469,28.457 -8.813,7.008 -20.051,10.512 -33.61,10.512 -17.218,0 -30.722,-6.907 -40.515,-20.672 -9.742,-13.762 -14.641,-32.832 -14.641,-57.266 0,-23.77 4.844,-42.426 14.59,-55.879 9.688,-13.457 23.246,-20.211 40.566,-20.211 13.559,0 24.797,3.918 33.61,11.758 8.816,7.887 13.972,18.449 15.469,31.852 v 0 z m 35.309,-77.629 v 0 222.07 h 163.308 v 0 -19.539 -19.742 0 H 641.492 v 0 -47.012 0 h 108.563 v -19.07 -19.282 0 H 641.492 v 0 -58.148 0 h 122.172 v 0 -19.539 -19.738 0 z m 206.3,0 v 222.07 h 158.051 v 0 -19.539 -19.742 0 h -111.66 v 0 -50.41 0 h 97.43 v -19.075 -19.281 0 h -97.43 v 0 -94.023 h -23.094 z m 188.926,0 v 0 222.07 h 163.306 v 0 -19.539 -19.742 0 h -116.91 v 0 -47.012 0 h 108.56 v -19.07 -19.282 0 h -108.56 v 0 -58.148 0 h 122.17 v 0 -19.539 -19.738 0 z m 254.246,0 v 182.789 h -67.12 v 0 19.59 19.691 0 h 180.62 v 0 -19.539 -19.742 0 h -67.11 v 0 -182.789 0 h -23.09 z m 213.36,227.949 -70.47,-234.137 h -35.62 l 70.46,234.137 z m 13.55,-227.949 v 222.07 h 23.1 v 0 h 88.81 c 21.19,0 38.2,-5.672 51.14,-17.012 12.94,-11.34 19.44,-26.285 19.44,-44.898 0,-21.344 -7.22,-37.012 -21.6,-46.856 -3.82,-2.629 -8.15,-4.847 -12.99,-6.707 v 0 c 2.73,-1.078 5.2,-2.312 7.42,-3.605 12.68,-7.524 19.28,-20.258 19.74,-38.039 l 1.09,-36.395 c 0.2,-7.269 0.98,-12.426 2.26,-15.418 1.29,-3.039 3.82,-5.461 7.53,-7.269 v -5.871 h -51.19 c -1.23,2.316 -2.27,7.269 -3.19,14.843 -0.88,7.633 -1.4,15.778 -1.5,24.539 l -0.31,20.516 c -0.21,9.945 -3.14,17.063 -8.82,21.289 -5.66,4.227 -15.1,6.344 -28.29,6.344 h -46.24 v 0 -87.531 0 h -23.1 z m 46.4,124.953 v 0 h 53.76 c 11.96,0 20.98,2.426 26.96,7.324 5.98,4.891 8.97,12.262 8.97,22.164 0,9.742 -2.83,17.059 -8.55,21.957 -5.68,4.899 -14.18,7.324 -25.57,7.324 h -55.57 v 0 z m 257.07,97.117 v 0 h 46.39 v 0 -159.801 c 0,-22.527 -6.02,-39.586 -18.14,-51.137 -12.11,-11.543 -29.95,-17.32 -53.51,-17.32 -25.1,0 -43.51,6.344 -55.21,19.02 -11.7,12.632 -17.16,32.222 -16.34,58.664 v 13.246 h 44.23 v -13.246 c -0.41,-13.453 1.6,-23.453 5.98,-29.899 4.38,-6.496 11.34,-9.742 20.93,-9.742 9.17,0 15.72,2.371 19.69,7.113 3.97,4.743 5.98,12.477 5.98,23.301 v 0 159.801" /></g></g></svg>